<svg width="20" height="20" viewBox="0 0 41 31" fill="none" xmlns="http://www.w3.org/2000/svg">
<path d="M39.3131 0.000748343C38.8875 0.0140729 38.4835 0.200966 38.1867 0.521834L13.1309 26.8451L2.82052 16.0132C2.66955 15.848 2.48873 15.7161 2.28863 15.6253C2.08854 15.5344 1.8732 15.4864 1.65523 15.4841C1.43725 15.4818 1.22103 15.5252 1.01922 15.6117C0.817404 15.6983 0.63406 15.8263 0.479922 15.9882C0.325784 16.1501 0.203951 16.3428 0.121558 16.5548C0.0391643 16.7668 -0.00213287 16.994 8.48055e-05 17.223C0.00230248 17.452 0.0479904 17.6782 0.134473 17.8884C0.220955 18.0986 0.346493 18.2886 0.503735 18.4472L11.9725 30.4961C12.2797 30.8187 12.6964 31 13.1309 31C13.5653 31 13.982 30.8187 14.2893 30.4961L40.5035 2.95581C40.7403 2.71404 40.902 2.40276 40.9675 2.06278C41.0329 1.72279 40.9991 1.36996 40.8704 1.05052C40.7417 0.731079 40.5242 0.459928 40.2463 0.272605C39.9684 0.0852813 39.6432 -0.00947659 39.3131 0.000748343Z" fill="white"/>
</svg>
