<svg width="300" height="300" viewBox="0 0 202 206" fill="none" xmlns="http://www.w3.org/2000/svg">
<path d="M199.56 120.394C198.701 125.32 188.429 128.502 173.37 128.502H172.988C167.359 123.803 160.521 119.023 152.825 114.537C150.615 113.248 148.404 112.024 146.194 110.882C148.675 110.556 151.155 110.181 153.652 109.74C162.159 108.223 170.205 106.102 177.25 103.59C191.307 108.696 200.466 115.157 199.544 120.377L199.56 120.394ZM187.649 153.462C186.266 155.876 182.609 156.382 179.778 156.382C174.578 156.382 167.645 154.767 159.933 151.896C156.944 146.757 153.223 141.308 148.897 135.761C148.754 135.582 148.595 135.386 148.452 135.207C148.086 134.733 147.721 134.277 147.339 133.804C146.798 133.135 146.258 132.466 145.701 131.813C144.063 129.839 142.394 127.931 140.724 126.103C143.125 126.642 145.574 127.147 148.102 127.588C156.482 129.073 164.831 129.888 172.352 129.953C183.833 139.611 190.257 148.861 187.634 153.446L187.649 153.462ZM135.111 197.999C134.666 198.162 134.173 198.244 133.664 198.244C128.639 198.244 121.563 190.544 114.868 178.749C116.077 171.489 116.745 163.136 116.745 154.18C116.745 151.618 116.681 149.073 116.57 146.577C118.064 148.551 119.623 150.525 121.276 152.516C125.347 157.41 129.545 161.913 133.696 165.844C135.27 167.329 136.812 168.748 138.355 170.07C140.994 184.932 140.04 196.188 135.111 197.999ZM100.811 204.117C95.5478 204.117 90.8409 193.872 88.2967 178.977C91.9222 172.533 95.4047 164.914 98.3942 156.594C99.2687 154.163 100.064 151.765 100.811 149.4C101.543 151.765 102.354 154.163 103.228 156.594C106.218 164.898 109.7 172.517 113.326 178.977C110.781 193.872 106.075 204.117 100.811 204.117ZM67.9586 198.26C67.4498 198.26 66.9568 198.179 66.5116 198.015C61.5662 196.205 60.6121 184.948 63.2677 170.086C68.8809 165.257 74.7327 159.27 80.33 152.532C81.9838 150.558 83.5421 148.568 85.0369 146.594C84.9256 149.073 84.862 151.602 84.862 154.196C84.862 163.152 85.5457 171.505 86.7383 178.765C80.0597 190.56 72.9676 198.26 67.9586 198.26ZM39.7652 181.506C38.3341 181.506 37.1892 181.147 36.3464 180.429C33.5318 178.047 34.0407 171.668 37.7457 162.924C39.0656 159.808 40.7352 156.496 42.707 153.087C49.656 150.46 57.2092 146.855 64.7306 142.466C66.9409 141.178 69.0876 139.856 71.1707 138.518C70.2167 140.819 69.3103 143.168 68.4357 145.599C65.3985 154.049 63.2041 162.157 61.8684 169.417C53.0589 176.954 45.0127 181.506 39.7811 181.506H39.7652ZM21.8283 156.398C18.9979 156.398 15.3405 155.893 13.9571 153.478C11.3333 148.878 17.7575 139.644 29.2384 129.986C36.7439 129.921 45.0922 129.105 53.4883 127.621C56.0166 127.164 58.4813 126.658 60.8825 126.136C59.2128 127.963 57.5431 129.872 55.9053 131.846C50.3398 138.551 45.5057 145.419 41.7052 151.928C33.9771 154.816 27.044 156.431 21.8283 156.431V156.398ZM28.2366 128.518C13.1938 128.518 2.92141 125.337 2.04683 120.41C1.14044 115.189 10.2838 108.729 24.3249 103.623C31.1943 106.086 39.2087 108.207 47.9386 109.757C50.4352 110.197 52.9317 110.589 55.3964 110.915C53.1861 112.057 50.9917 113.281 48.7655 114.569C41.0692 119.056 34.2474 123.836 28.6183 128.534H28.2207L28.2366 128.518ZM13.9571 52.1521C15.3405 49.7377 18.9979 49.2319 21.8283 49.2319C27.0281 49.2319 33.9612 50.847 41.6734 53.7183C45.3785 60.0644 50.1807 66.9163 55.8894 73.8008C57.5272 75.7748 59.1969 77.6835 60.8666 79.5107C58.4654 78.9723 56.0007 78.4666 53.4724 78.0261C49.0994 77.243 44.7265 76.6557 40.4808 76.2479C36.6008 75.889 32.8163 75.6932 29.2225 75.6606C17.7416 66.0027 11.3174 56.769 13.9412 52.1684L13.9571 52.1521ZM36.3464 25.2014C37.1892 24.4836 38.3341 24.1247 39.7652 24.1247C44.9968 24.1247 53.0589 28.6926 61.8684 36.2134C63.2041 43.4731 65.3826 51.5812 68.4357 60.0155C69.3103 62.4463 70.2326 64.8118 71.1707 67.1121C69.1035 65.7743 66.9568 64.4529 64.7306 63.1641C57.2251 58.7756 49.6878 55.1865 42.7388 52.56C35.2174 39.5088 32.3074 28.6111 36.3305 25.2014H36.3464ZM66.5116 7.61498C66.9568 7.45184 67.4498 7.37027 67.9586 7.37027C72.9676 7.37027 80.0597 15.0705 86.7383 26.8492C85.5298 34.1089 84.862 42.4616 84.862 51.4343C84.862 52.299 84.862 53.1636 84.8779 54.0282C84.8779 54.6319 84.8938 55.2355 84.9256 55.8391C84.9256 56.0675 84.9256 56.3122 84.9415 56.5406C84.9574 57.3889 85.0051 58.2209 85.0369 59.0366C83.5421 57.0626 81.9838 55.0887 80.33 53.0983C74.7327 46.3607 68.8809 40.3734 63.2677 35.5445C60.6121 20.6825 61.5662 9.44215 66.5116 7.61498ZM133.664 7.37027C134.173 7.37027 134.65 7.45184 135.111 7.61498C138.546 8.87116 140.231 15.0542 139.722 24.5489C139.547 27.9422 139.086 31.6292 138.402 35.5119C132.789 40.3571 126.906 46.3444 121.292 53.0983C119.654 55.0723 118.096 57.0463 116.586 59.0366C116.697 56.5569 116.76 54.0282 116.76 51.4343C116.76 50.5371 116.76 49.6561 116.745 48.7588C116.745 48.6609 116.745 48.5631 116.745 48.4652C116.745 47.731 116.713 46.9969 116.697 46.2628C116.681 45.6265 116.649 45.0229 116.633 44.403C116.633 44.2072 116.633 44.0115 116.617 43.832C116.347 37.7306 115.759 32.0207 114.9 26.8492C121.594 15.0542 128.671 7.37027 133.696 7.37027H133.664ZM161.857 24.1247C163.272 24.1247 164.433 24.4999 165.276 25.2014C169.299 28.6111 166.405 39.5088 158.884 52.56C151.935 55.1865 144.413 58.7756 136.908 63.1641C134.681 64.4529 132.535 65.7743 130.468 67.1121C131.422 64.8118 132.328 62.4463 133.203 60.0155C136.16 51.7932 138.386 43.6526 139.738 36.2297C148.548 28.6763 156.626 24.1084 161.857 24.1084V24.1247ZM179.794 49.2319C182.625 49.2319 186.282 49.7377 187.665 52.1521C189.494 55.366 186.854 61.1738 180.43 68.1235C178.14 70.6032 175.453 73.1319 172.448 75.6443C164.926 75.7095 156.546 76.5252 148.15 78.0098C145.622 78.4503 143.157 78.956 140.772 79.4944C142.441 77.6672 144.095 75.7585 145.749 73.7845C151.458 66.9163 156.26 60.0644 159.965 53.702C167.677 50.8307 174.61 49.2156 179.81 49.2156L179.794 49.2319ZM127.701 102.807C132.805 101.061 138.291 98.7285 143.904 95.9062C147.037 96.2814 150.233 96.7382 153.429 97.3092C161.253 98.6959 168.615 100.621 175.071 102.823C168.536 105.058 161.173 106.934 153.429 108.305C150.233 108.876 147.053 109.333 143.904 109.708C138.275 106.886 132.789 104.553 127.685 102.807H127.701ZM128.432 110.67C126.953 110.67 125.522 110.638 124.139 110.572C121.69 108.68 119.305 107.049 117.063 105.695C119.654 105.205 122.437 104.487 125.395 103.557C130.309 105.14 135.667 107.31 141.185 109.985C136.749 110.426 132.455 110.654 128.432 110.654V110.67ZM126.079 112.106C126.858 112.122 127.621 112.139 128.432 112.139C133.203 112.139 138.355 111.829 143.65 111.225C146.449 112.644 149.295 114.178 152.11 115.842C158.995 119.855 165.26 124.195 170.571 128.502C163.622 128.338 156.021 127.539 148.389 126.185C145.161 125.614 142.012 124.945 138.959 124.211C134.618 119.61 130.245 115.532 126.063 112.139L126.079 112.106ZM157.691 151.047C151.314 148.519 144.461 145.174 137.623 141.194C134.777 139.546 132.042 137.817 129.434 136.071C126.906 130.231 124.186 124.912 121.404 120.296C126.365 122.237 132.042 124.015 138.243 125.516C140.39 127.816 142.521 130.231 144.62 132.759C149.724 138.91 154.145 145.158 157.691 151.031V151.047ZM122.405 151.586C120.306 149.057 118.319 146.496 116.442 143.951C116.061 137.686 115.313 131.732 114.264 126.381C118.255 129.921 122.978 133.543 128.257 137.066C129.513 139.97 130.69 142.988 131.819 146.088C134.538 153.641 136.59 161.048 137.925 167.802C137.496 167.427 137.083 167.035 136.637 166.644C131.93 162.32 127.081 157.23 122.39 151.586H122.405ZM97.3288 127.376C98.744 124.603 99.9207 121.976 100.827 119.513C101.733 121.976 102.91 124.603 104.325 127.376C103.642 132.515 102.481 138.208 100.827 144.196C99.1892 138.208 98.0125 132.498 97.3288 127.376ZM89.2349 124.668C90.7296 123.281 92.113 121.878 93.3852 120.508C94.0212 119.823 94.6096 119.154 95.1661 118.501C95.182 121.128 95.4047 124.015 95.7863 127.099C93.4011 131.683 90.3798 136.642 86.8019 141.7C87.279 135.5 88.1218 129.725 89.219 124.668H89.2349ZM87.3585 126.364C86.3249 131.634 85.5775 137.556 85.1959 143.967C83.3354 146.496 81.3477 149.057 79.2328 151.586C74.1284 157.736 68.8173 163.25 63.7129 167.802C65.0487 161.048 67.0841 153.641 69.8032 146.088C70.9322 142.972 72.1089 139.954 73.3652 137.066C78.5491 133.592 83.2877 129.97 87.3426 126.381L87.3585 126.364ZM82.5244 119.366C85.3708 118.175 87.9469 116.902 90.2049 115.613C89.3303 118.093 88.5511 120.899 87.8673 123.95C84.0192 127.49 79.4872 131.079 74.4942 134.538C77.0384 128.893 79.7735 123.754 82.5244 119.366ZM80.2505 120.279C77.4678 124.896 74.7327 130.231 72.2203 136.071C69.5965 137.817 66.8614 139.53 64.031 141.178C57.1774 145.174 50.3079 148.519 43.9155 151.047C47.5252 145.077 51.9776 138.845 57.0343 132.759C59.1492 130.231 61.28 127.816 63.4108 125.516C69.6124 124.015 75.2892 122.237 80.2505 120.279ZM77.9607 112.024C78.3264 112.008 78.6763 111.992 79.042 111.975C80.2028 111.91 81.3318 111.812 82.4131 111.714C83.8761 111.568 85.2754 111.388 86.5952 111.16C84.9415 113.183 83.2718 115.516 81.6181 118.126C76.8476 120.1 71.3298 121.943 65.3349 123.526C69.6283 119.088 73.9217 115.206 77.9766 112.041L77.9607 112.024ZM73.222 112.139C74.0171 112.139 74.7963 112.139 75.5755 112.106C71.3934 115.499 67.0364 119.578 62.6952 124.178C59.6421 124.912 56.4936 125.581 53.2656 126.152C45.6329 127.506 38.0161 128.306 31.0671 128.485C36.3941 124.178 42.6434 119.839 49.5288 115.826C52.3592 114.178 55.1897 112.628 57.9884 111.209C63.2836 111.812 68.4357 112.122 73.2061 112.122L73.222 112.139ZM26.6306 102.823C33.0707 100.621 40.4172 98.7122 48.2248 97.3255C51.4211 96.7545 54.6014 96.2814 57.734 95.9225C63.3631 98.7449 68.8491 101.061 73.9535 102.823C68.8491 104.569 63.3631 106.902 57.734 109.724C54.6014 109.349 51.4211 108.892 48.2248 108.321C40.4172 106.934 33.0707 105.026 26.6306 102.823ZM28.2684 77.1125C28.3957 77.1125 28.5388 77.1125 28.666 77.1125C34.2951 81.8109 41.1328 86.5746 48.8132 91.061C51.0235 92.3498 53.2338 93.557 55.4441 94.7153C52.9794 95.0416 50.4829 95.4168 47.9863 95.8573C39.2564 97.4071 31.242 99.5442 24.3726 101.991C10.2838 96.8851 1.12454 90.441 2.04683 85.2043C2.26945 83.9155 3.14403 82.7572 4.55927 81.7294C8.58235 78.8255 17.1056 77.0799 28.2366 77.0799L28.2684 77.1125ZM53.2656 79.4781C56.4936 80.049 59.6421 80.7179 62.6952 81.452C67.0364 86.0689 71.3934 90.1311 75.5755 93.5244C74.8122 93.5081 74.033 93.4918 73.222 93.4918C68.4357 93.4918 63.2995 93.8017 58.0043 94.4053C55.2056 92.986 52.3751 91.4525 49.5447 89.7885C42.6593 85.7752 36.3941 81.4357 31.083 77.1288C34.0884 77.1941 37.2051 77.3899 40.4013 77.6998C44.5993 78.0914 48.9404 78.695 53.2656 79.4617V79.4781ZM80.2505 85.3511C75.2892 83.3934 69.6124 81.6152 63.4108 80.1143C61.2641 77.8303 59.1333 75.3996 57.0343 72.8709C51.9299 66.7205 47.5093 60.4723 43.9632 54.5992C50.3398 57.1279 57.1933 60.4723 64.031 64.4529C66.8773 66.1169 69.6124 67.8299 72.2203 69.5592C74.7486 75.3996 77.4678 80.7342 80.2505 85.3511ZM87.8833 81.7457C88.567 84.7801 89.3462 87.5535 90.2049 90.0332C87.931 88.7444 85.3708 87.4882 82.5244 86.281C79.7735 81.9088 77.0543 76.7699 74.5101 71.1253C79.5827 74.6491 84.0987 78.2545 87.8833 81.7457ZM87.3585 79.2497C83.3672 75.7258 78.6604 72.1041 73.3652 68.5803C72.1248 65.6764 70.9322 62.6583 69.8032 59.5587C67.0841 52.0053 65.0328 44.5988 63.7129 37.8448C68.8173 42.3964 74.1284 47.9105 79.2328 54.0609C81.3318 56.5895 83.3195 59.1508 85.1959 61.6795C85.5775 68.0746 86.3249 73.9966 87.3585 79.2497ZM87.9469 29.0026C91.2067 35.0551 94.3552 42.0375 97.0584 49.5419C98.1874 52.6579 99.1733 55.7412 100.064 58.7593C98.2669 64.8934 96.963 70.7174 96.152 76.0195C93.5919 71.3211 90.3957 66.2964 86.627 61.1575C86.4362 58.0089 86.3408 54.7624 86.3408 51.4506C86.3408 43.4405 86.9292 35.7892 87.9469 29.0026ZM114.312 79.2497C115.345 73.9966 116.093 68.0583 116.474 61.6632C118.335 59.1182 120.338 56.5732 122.421 54.0609C127.542 47.8942 132.869 42.3801 137.989 37.8122C136.637 44.664 134.554 52.0706 131.851 59.5587C130.738 62.6583 129.545 65.6764 128.289 68.5803C123.01 72.1041 118.303 75.7258 114.312 79.2497ZM119.146 86.281C116.299 87.4882 113.723 88.7444 111.449 90.0332C111.592 89.609 111.751 89.1849 111.879 88.7444C112.578 86.6073 113.214 84.258 113.771 81.7457C117.555 78.2545 122.087 74.6491 127.144 71.1253C124.6 76.7536 121.865 81.8925 119.13 86.2647L119.146 86.281ZM121.404 85.3674C124.186 80.7505 126.906 75.4322 129.434 69.5918C132.042 67.8462 134.777 66.1332 137.623 64.4692C144.461 60.4886 151.314 57.1442 157.691 54.6155C154.145 60.4886 149.724 66.7368 144.62 72.8872C142.521 75.4159 140.374 77.8466 138.243 80.1306C132.042 81.6315 126.365 83.4097 121.404 85.3674ZM123.709 93.6223C120.545 93.7691 117.651 94.0627 115.075 94.4869C116.729 92.464 118.398 90.1311 120.052 87.5208C124.822 85.5305 130.34 83.6871 136.335 82.1209C132.042 86.5583 127.748 90.441 123.693 93.606L123.709 93.6223ZM128.432 93.5081C127.637 93.5081 126.858 93.5081 126.079 93.5407C130.261 90.1474 134.618 86.0852 138.975 81.4683C142.012 80.7342 145.161 80.0653 148.404 79.4944C156.053 78.124 163.67 77.3409 170.651 77.1615C165.244 81.5173 158.947 85.8405 152.125 89.8211C149.295 91.4688 146.464 93.0186 143.666 94.438C138.371 93.8343 133.234 93.5244 128.448 93.5244L128.432 93.5081ZM117.063 99.9358C119.305 98.598 121.69 96.9503 124.139 95.0579C125.522 95.009 126.953 94.9763 128.416 94.9763C132.439 94.9763 136.749 95.2047 141.185 95.6452C135.651 98.3207 130.309 100.49 125.395 102.089C122.453 101.159 119.654 100.442 117.063 99.9521V99.9358ZM111.338 102.84C112.531 102.367 113.771 101.779 115.059 101.078C117.476 101.437 120.1 102.04 122.898 102.84C120.1 103.639 117.476 104.226 115.059 104.602C113.771 103.9 112.515 103.313 111.338 102.84ZM115.075 111.176C117.651 111.617 120.545 111.91 123.709 112.041C127.764 115.206 132.042 119.088 136.351 123.526C130.356 121.96 124.838 120.116 120.068 118.126C118.414 115.516 116.745 113.183 115.091 111.16L115.075 111.176ZM110.622 113.444C110.066 112.057 109.478 110.817 108.889 109.675C110.098 110.083 111.417 110.442 112.865 110.752C114.439 112.563 116.045 114.684 117.651 117.082C115.027 115.891 112.674 114.667 110.638 113.427L110.622 113.444ZM112.276 118.191C112.006 117.294 111.72 116.446 111.449 115.63C113.707 116.919 116.299 118.191 119.146 119.398C121.897 123.787 124.616 128.909 127.16 134.554C122.087 131.03 117.555 127.425 113.771 123.934C113.326 121.911 112.817 120.018 112.292 118.207L112.276 118.191ZM106.44 116.184C106.377 114.684 106.25 113.297 106.059 112.024C107.06 112.824 108.189 113.64 109.446 114.439C109.955 115.728 110.432 117.114 110.877 118.615C111.211 119.725 111.529 120.883 111.831 122.074C109.748 120.051 107.935 118.061 106.44 116.184ZM105.852 127.131C106.234 124.048 106.44 121.16 106.472 118.534C108.174 120.54 110.177 122.629 112.451 124.749C113.58 129.888 114.375 135.647 114.852 141.765C111.274 136.691 108.237 131.732 105.868 127.131H105.852ZM97.2811 110.507C97.7422 110.05 98.1556 109.61 98.5373 109.169C98.5373 109.74 98.5691 110.344 98.6327 110.98C98.1397 111.959 97.5037 112.987 96.7722 114.064C96.8835 112.775 97.0425 111.584 97.2811 110.524V110.507ZM94.8799 108.843C95.4524 108.582 96.0089 108.305 96.5019 108.028C96.3111 108.566 96.1361 109.153 95.993 109.773C95.182 110.507 94.2598 111.258 93.1944 112.008C93.735 110.834 94.2916 109.789 94.8799 108.86V108.843ZM92.7491 109.675C92.129 110.801 91.5565 112.073 90.9999 113.444C88.9646 114.684 86.5952 115.907 83.9715 117.098C85.5775 114.7 87.1836 112.579 88.7578 110.768C90.2049 110.458 91.5406 110.099 92.7491 109.675ZM86.5634 101.078C87.8514 101.779 89.1077 102.367 90.2844 102.84C89.0918 103.313 87.8514 103.9 86.5634 104.602C84.1464 104.243 81.5226 103.655 78.724 102.84C81.5226 102.04 84.1464 101.437 86.5634 101.078ZM84.5598 99.9358C81.9679 100.425 79.1851 101.143 76.2433 102.073C71.3298 100.49 65.9709 98.3044 60.4372 95.6289C64.8737 95.1884 69.1672 94.96 73.2061 94.96C74.685 94.96 76.1161 94.9926 77.4837 95.0416C79.9325 96.934 82.3177 98.5654 84.5598 99.9195V99.9358ZM88.09 96.2978C89.06 97.3908 90.03 98.3533 90.9681 99.2017C89.6483 99.2343 88.249 99.3648 86.7542 99.5769C84.6393 98.4023 82.3813 96.9503 80.0279 95.221C83.0015 95.4331 85.7047 95.792 88.09 96.2978ZM81.5703 87.5372C83.2241 90.1474 84.9097 92.4803 86.5475 94.5032C83.9715 94.0627 81.0774 93.7854 77.9289 93.6386C73.874 90.4737 69.5806 86.5909 65.2872 82.1535C71.2821 83.7197 76.7999 85.5632 81.5703 87.5535V87.5372ZM95.1502 87.1456C93.4647 85.1553 91.477 83.0834 89.2031 80.9626C88.1059 75.9053 87.279 70.1465 86.786 63.9471C90.348 69.0045 93.3852 73.9639 95.7704 78.5482C95.3729 81.6478 95.1661 84.5191 95.1502 87.1456ZM100.048 88.3692C99.5868 89.8048 99.2369 91.1425 98.9825 92.3987C98.3147 91.2894 97.5355 90.1637 96.6291 88.9891C96.5814 86.5909 96.7086 83.9155 97.0107 81.0279C98.2669 83.6381 99.3005 86.1178 100.064 88.3855L100.048 88.3692ZM104.31 78.3034C103.371 80.1306 102.544 81.9251 101.813 83.6544C101.447 84.5191 101.129 85.3511 100.827 86.1505C99.9207 83.6871 98.744 81.0605 97.3288 78.2708C98.0125 73.1319 99.1733 67.4383 100.827 61.4511C102.481 67.4383 103.642 73.1482 104.325 78.2871L104.31 78.3034ZM105.502 76.0684C104.691 70.7664 103.387 64.926 101.574 58.7756C102.465 55.7575 103.467 52.6579 104.58 49.5582C107.283 42.0538 110.416 35.0714 113.691 29.0189C114.725 35.8055 115.297 43.4568 115.297 51.467C115.297 54.7787 115.202 58.0252 114.995 61.1738C111.306 66.2311 108.078 71.2721 105.47 76.0521L105.502 76.0684ZM112.419 80.9789C110.161 83.0834 108.158 85.1553 106.488 87.1619C106.456 84.5354 106.25 81.6315 105.852 78.5318C108.269 73.866 111.306 68.9392 114.836 63.9471C114.359 70.1628 113.517 75.9379 112.419 80.9953V80.9789ZM109.446 91.2731C108.189 92.0561 107.06 92.8718 106.059 93.6712C106.25 92.3824 106.377 90.9957 106.44 89.5111C107.919 87.635 109.732 85.6774 111.783 83.6544C111.704 83.9807 111.624 84.307 111.545 84.6169C110.909 87.0477 110.209 89.2827 109.446 91.2567V91.2731ZM108.873 96.0204C109.493 94.8948 110.066 93.6386 110.622 92.2519C112.658 91.012 115.011 89.7722 117.635 88.5976C116.029 90.9957 114.423 93.1328 112.865 94.9274C111.417 95.2373 110.082 95.5963 108.873 96.0204ZM108.444 99.2506C107.808 99.2995 107.188 99.3648 106.631 99.4627C106.981 99.0385 107.331 98.5654 107.665 98.076C108.667 97.6518 109.811 97.2766 111.052 96.9177C110.161 97.815 109.287 98.598 108.444 99.2506ZM110.654 99.2343C111.608 98.386 112.562 97.4071 113.532 96.3304C115.918 95.8247 118.621 95.4657 121.594 95.2537C119.241 96.9666 116.983 98.4349 114.868 99.6095C113.373 99.3974 111.958 99.2669 110.654 99.2343ZM108.889 102.024C108.38 101.877 107.887 101.763 107.41 101.681C107.903 101.404 108.38 101.078 108.873 100.703C109.239 100.686 109.605 100.686 109.955 100.686C110.766 100.686 111.64 100.735 112.531 100.817C111.37 101.355 110.257 101.796 109.207 102.122C109.112 102.089 109 102.057 108.905 102.024H108.889ZM110.654 106.51C111.974 106.478 113.373 106.347 114.868 106.135C116.983 107.293 119.241 108.762 121.594 110.491C118.621 110.279 115.918 109.904 113.532 109.414C112.562 108.321 111.592 107.342 110.654 106.51ZM106.647 106.282C107.22 106.38 107.808 106.429 108.444 106.478C109.287 107.13 110.161 107.913 111.052 108.811C109.811 108.468 108.682 108.093 107.681 107.669C107.347 107.163 106.997 106.706 106.647 106.282ZM105.12 108.06C105.613 108.337 106.154 108.615 106.727 108.876C107.315 109.789 107.871 110.85 108.428 112.024C107.379 111.29 106.44 110.54 105.645 109.806C105.502 109.186 105.327 108.615 105.136 108.06H105.12ZM103.006 111.046C103.069 110.409 103.101 109.789 103.117 109.202C103.499 109.643 103.896 110.099 104.373 110.54C104.612 111.617 104.771 112.807 104.882 114.096C104.135 113.036 103.514 112.008 103.021 111.029L103.006 111.046ZM93.2103 106.478C93.8463 106.429 94.4665 106.363 95.023 106.266C94.6732 106.69 94.3393 107.163 94.0053 107.652C93.0035 108.076 91.8586 108.468 90.6183 108.811C91.5088 107.913 92.3834 107.13 93.2262 106.478H93.2103ZM90.9999 106.51C90.0459 107.342 89.0918 108.321 88.1218 109.414C85.7365 109.904 83.0333 110.263 80.0597 110.491C82.4131 108.762 84.6711 107.293 86.786 106.135C88.2808 106.347 89.696 106.478 90.9999 106.51ZM94.2439 104.063C93.7668 104.357 93.2739 104.667 92.7809 105.042C92.4152 105.058 92.0495 105.075 91.6996 105.075C90.8886 105.075 90.0141 105.026 89.1236 104.944C90.2844 104.406 91.4134 103.965 92.447 103.623C93.0671 103.819 93.6555 103.949 94.2439 104.063ZM92.7809 100.703C93.2739 101.078 93.7668 101.404 94.2439 101.681C93.6714 101.796 93.0671 101.942 92.447 102.122C91.3975 101.796 90.2844 101.355 89.1236 100.817C90.0141 100.735 90.8886 100.686 91.6996 100.686C92.0495 100.686 92.4152 100.686 92.7809 100.703ZM93.9894 98.076C94.3234 98.5817 94.6732 99.0385 95.023 99.4627C94.4506 99.3648 93.8622 99.2995 93.2262 99.2506C92.3834 98.598 91.5088 97.815 90.6183 96.9177C91.8586 97.2603 92.9876 97.6355 93.9894 98.076ZM91.0317 92.2682C91.0317 92.2682 91.0477 92.3335 91.0636 92.3661C91.1113 92.464 91.1431 92.5619 91.1908 92.6597C91.3021 92.9208 91.3975 93.1492 91.5088 93.3939C91.9222 94.3401 92.3516 95.221 92.7809 96.0204C91.5724 95.6126 90.2367 95.2537 88.7896 94.9274C87.2313 93.1165 85.6252 90.9957 84.0192 88.5976C86.6429 89.7885 89.0123 91.012 91.0476 92.2519L91.0317 92.2682ZM98.5373 96.5262C98.1715 96.0857 97.7581 95.6289 97.2969 95.1884C97.0584 94.1117 96.8835 92.9208 96.7722 91.632C97.5196 92.6924 98.1238 93.7038 98.6327 94.6827C98.5691 95.3352 98.5373 95.9389 98.5214 96.5262H98.5373ZM101.543 94.438C101.256 95.009 101.018 95.5799 100.827 96.1346C100.636 95.5963 100.398 95.0416 100.127 94.4706C100.271 93.3776 100.509 92.203 100.843 90.9305C101.177 92.1866 101.415 93.3612 101.559 94.4543L101.543 94.438ZM104.357 95.1884C103.896 95.6452 103.483 96.0857 103.101 96.5425C103.101 95.9552 103.069 95.3515 102.99 94.699C103.499 93.7201 104.119 92.6924 104.85 91.632C104.739 92.9208 104.564 94.1117 104.341 95.1884H104.357ZM106.758 96.8524C106.17 97.1135 105.629 97.3908 105.12 97.6845C105.311 97.1461 105.486 96.5588 105.629 95.9389C106.44 95.2047 107.363 94.4543 108.428 93.7201C107.887 94.8948 107.331 95.9389 106.758 96.8688V96.8524ZM96.0248 95.9389C96.1679 96.5588 96.3429 97.1298 96.5337 97.6845C96.0407 97.3908 95.5001 97.1298 94.9276 96.8688C94.3393 95.9552 93.7827 94.8948 93.2262 93.7201C94.2757 94.4543 95.2139 95.2047 96.0089 95.9389H96.0248ZM108.889 105.026C108.396 104.651 107.903 104.341 107.426 104.047C107.999 103.933 108.603 103.802 109.223 103.606C110.273 103.933 111.386 104.373 112.547 104.928C111.656 105.009 110.781 105.058 109.97 105.058C109.621 105.058 109.271 105.058 108.889 105.026ZM105.025 88.9891C104.119 90.1637 103.324 91.322 102.656 92.415C102.401 91.1425 102.052 89.7885 101.59 88.3692C102.036 87.064 102.544 85.6937 103.165 84.2417C103.61 83.1813 104.119 82.0883 104.643 80.9789C104.946 83.8828 105.073 86.5909 105.025 89.0054V88.9891ZM95.2139 89.5111C95.2616 90.9957 95.3888 92.3824 95.5796 93.6712C94.5778 92.8718 93.4488 92.0561 92.2085 91.2731C91.3498 89.038 90.5547 86.4767 89.855 83.6544C91.9063 85.6774 93.7191 87.635 95.2139 89.5111ZM100.732 114.439C100.445 113.33 100.239 112.285 100.112 111.307C100.398 110.736 100.636 110.165 100.827 109.61C101.034 110.165 101.256 110.719 101.543 111.29C101.4 112.383 101.161 113.558 100.827 114.814C100.795 114.684 100.763 114.569 100.732 114.439ZM104.643 124.684C103.387 122.074 102.37 119.61 101.59 117.326C102.052 115.907 102.401 114.553 102.656 113.281C103.324 114.39 104.119 115.532 105.025 116.723C105.073 119.121 104.946 121.797 104.643 124.684ZM60.4531 110.05C65.9869 107.375 71.3298 105.205 76.2592 103.623C79.201 104.553 81.9997 105.27 84.5757 105.76C82.3336 107.114 79.9484 108.745 77.4996 110.621C76.1161 110.687 74.7009 110.719 73.222 110.719C69.199 110.719 64.8896 110.491 60.4531 110.05ZM92.3357 119.561C91.5565 120.41 90.7137 121.258 89.8391 122.123C90.5388 119.284 91.3339 116.707 92.1926 114.455C93.4488 113.656 94.5619 112.856 95.5637 112.041C95.3729 113.33 95.2457 114.716 95.1821 116.217C94.3393 117.294 93.3852 118.42 92.3198 119.561H92.3357ZM96.645 116.739C97.5514 115.565 98.3465 114.406 99.0143 113.313C99.2687 114.586 99.6186 115.923 100.08 117.343C99.3164 119.61 98.2828 122.09 97.0266 124.7C96.7245 121.813 96.5973 119.137 96.645 116.739ZM108.571 9.54003C108.635 9.68686 108.698 9.83368 108.778 9.99682C108.857 10.1763 108.937 10.3557 109.016 10.5352C110.781 14.7768 112.26 20.3073 113.357 26.686C109.748 33.13 106.265 40.7487 103.26 49.0525C102.385 51.4833 101.574 53.8977 100.843 56.2633C100.112 53.8977 99.3005 51.4996 98.426 49.0525C95.4365 40.7487 91.954 33.13 88.3285 26.686C90.8727 11.8077 95.5796 1.54618 100.843 1.54618C101.082 1.54618 101.304 1.5625 101.543 1.61144C104.007 2.05192 106.456 4.84161 108.587 9.54003H108.571ZM86.627 144.538C90.3957 139.399 93.6078 134.375 96.152 129.676C96.963 134.962 98.2669 140.786 100.08 146.936C99.1892 149.954 98.1874 153.054 97.0743 156.154C94.3711 163.658 91.2385 170.657 87.9628 176.693C86.9451 169.906 86.3567 162.255 86.3567 154.245C86.3567 150.933 86.4521 147.687 86.6429 144.538H86.627ZM115.329 154.245C115.329 162.255 114.741 169.906 113.723 176.693C110.463 170.657 107.315 163.658 104.612 156.154C103.483 153.038 102.497 149.954 101.606 146.936C103.403 140.802 104.707 134.978 105.518 129.676C108.078 134.375 111.274 139.399 115.059 144.554C115.234 147.719 115.329 150.95 115.329 154.245ZM165.976 168.764C166.039 168.993 166.103 169.221 166.166 169.433C166.246 169.743 166.341 170.07 166.421 170.38C166.421 170.412 166.421 170.445 166.437 170.461C167.47 174.866 167.28 178.161 165.785 179.956C165.642 180.135 165.467 180.298 165.292 180.462C164.449 181.179 163.304 181.538 161.873 181.538C156.641 181.538 148.579 176.97 139.77 169.45C138.45 162.19 136.256 154.082 133.203 145.631C132.328 143.2 131.406 140.851 130.468 138.551C132.535 139.872 134.681 141.21 136.908 142.499C144.413 146.871 151.935 150.476 158.884 153.103C162.127 158.748 164.529 163.984 165.864 168.389C165.896 168.503 165.944 168.634 165.976 168.764ZM173.402 77.1615C188.444 77.1615 198.717 80.3427 199.591 85.2858C200.228 88.9238 195.775 93.4918 187.379 97.7823C184.39 99.3158 181.018 100.751 177.361 102.089C170.476 99.6258 162.43 97.505 153.684 95.9389C151.187 95.4984 148.691 95.1068 146.226 94.7969C148.436 93.6386 150.631 92.4313 152.857 91.1425C160.346 86.7704 167.216 81.9904 172.988 77.1941C173.131 77.1941 173.274 77.1941 173.418 77.1941L173.402 77.1615ZM179.46 102.856C182.561 101.681 185.439 100.409 188.031 99.0875C197.174 94.4053 201.786 89.4133 201.007 85.0248C200.021 79.3475 190.21 75.889 174.69 75.7095C177.202 73.5234 179.492 71.3374 181.48 69.1839C188.476 61.6306 191.132 55.3497 188.922 51.4833C187.538 49.0525 184.469 47.8289 179.794 47.8289C174.817 47.8289 168.297 49.2482 161.062 51.8095C168.377 38.6605 170.698 27.9422 166.214 24.141C165.101 23.2111 163.638 22.7217 161.873 22.7217C156.61 22.7217 148.738 26.996 140.136 34.1252C140.676 30.7971 141.026 27.6485 141.201 24.6794C141.758 14.3527 139.786 7.82706 135.636 6.29355C135.031 6.06515 134.379 5.95096 133.696 5.95096C128.369 5.95096 121.261 13.2107 114.518 24.6631C113.485 19.1653 112.149 14.3527 110.575 10.5026C110.559 10.4373 110.527 10.372 110.511 10.3231C110.384 10.0295 110.257 9.75211 110.145 9.45846C110.034 9.23007 109.939 9.00167 109.843 8.77327C109.827 8.72433 109.796 8.6917 109.78 8.64276C107.188 3.0797 104.119 0.0942383 100.859 0.0942383C94.9912 0.0942383 89.9505 9.83368 87.1836 24.6794C80.4254 13.227 73.3175 5.96727 68.0063 5.96727C67.3226 5.96727 66.6706 6.08147 66.0664 6.30986C60.5485 8.3328 59.1174 19.2142 61.5344 34.1089C52.9317 26.996 45.0604 22.738 39.8129 22.738C38.0479 22.738 36.569 23.2111 35.4718 24.1574C30.9717 27.9585 33.3092 38.6768 40.6239 51.8259C33.3728 49.2646 26.885 47.8452 21.8919 47.8452C17.2328 47.8452 14.1479 49.0688 12.7645 51.4996C9.83857 56.6385 15.6426 65.8885 26.9645 75.7258C17.6144 75.84 10.3474 77.1288 5.83139 79.3965C2.8578 80.8811 1.07683 82.7898 0.679295 85.0411C-0.338402 90.8652 8.24842 97.5539 22.1941 102.889C8.18481 108.125 -0.402008 114.814 0.615689 120.655C1.61749 126.332 11.3969 129.774 26.9009 129.97C15.579 139.807 9.75907 149.057 12.7008 154.196C14.0843 156.627 17.1533 157.85 21.8283 157.85C26.8214 157.85 33.341 156.415 40.5921 153.853C38.9543 156.79 37.5549 159.629 36.41 162.337C32.3869 171.864 32.0371 178.667 35.4082 181.538C36.5213 182.484 37.9843 182.958 39.7493 182.958C44.9968 182.958 52.8681 178.7 61.4708 171.587C59.0538 186.481 60.4849 197.363 66.0028 199.386C66.6229 199.614 67.259 199.728 67.9427 199.728C73.2538 199.728 80.3618 192.469 87.12 181.016C89.8868 195.846 94.9276 205.585 100.795 205.585C106.663 205.585 111.704 195.846 114.471 181.016C121.213 192.469 128.337 199.728 133.648 199.728C134.332 199.728 134.984 199.614 135.588 199.386C141.106 197.363 142.537 186.481 140.12 171.587C148.707 178.7 156.578 182.958 161.841 182.958C163.622 182.958 165.085 182.484 166.182 181.538C168.838 179.287 169.172 174.589 167.248 168.047C167.2 167.851 167.136 167.671 167.089 167.476C167.041 167.329 166.977 167.166 166.93 167.003C165.673 163.087 163.686 158.633 161.03 153.853C168.265 156.415 174.769 157.85 179.762 157.85C184.421 157.85 187.506 156.627 188.89 154.196C191.816 149.057 186.012 139.807 174.69 129.97C190.194 129.774 199.989 126.332 200.975 120.655C201.993 114.814 193.39 108.125 179.428 102.791L179.46 102.856Z" fill="#E9F79E"/>
</svg>
