<svg width="100" height="100" viewBox="0 0 512 512" fill="none" xmlns="http://www.w3.org/2000/svg">
<g clip-path="url(#clip0_2632_665)">
<mask id="mask0_2632_665" style="mask-type:luminance" maskUnits="userSpaceOnUse" x="0" y="0" width="512" height="512">
<path d="M512 0H0V512H512V0Z" fill="white"/>
</mask>
<g mask="url(#mask0_2632_665)">
<path d="M255.172 423C287.553 423 313.844 428.645 313.844 435.598C313.844 442.551 287.553 448.195 255.172 448.195C222.791 448.195 196.5 442.551 196.5 435.598C196.5 428.645 222.791 423 255.172 423Z" fill="black" fill-opacity="0.25"/>
<path d="M374.344 358.56C378.673 385.647 372.542 409.146 360.65 411.046C348.758 412.947 350.376 390.169 346.047 363.082C341.718 335.997 333.081 314.858 344.974 312.957C356.865 311.057 370.016 331.474 374.344 358.56Z" fill="white"/>
<path d="M137.213 360.56C132.884 387.647 139.015 411.146 150.907 413.046C162.799 414.947 161.181 392.169 165.51 365.082C169.838 337.997 178.475 316.858 166.583 314.957C154.692 313.057 141.542 333.474 137.213 360.56Z" fill="white"/>
<path d="M181.105 327.75C181.105 276.565 214.676 276.065 256.088 276.065C297.501 276.065 331.071 276.565 331.071 327.75C331.071 378.935 297.501 407.925 256.088 407.925C214.676 407.925 181.105 378.935 181.105 327.75Z" fill="white"/>
<path d="M310.195 292.316C310.195 300.451 285.97 307.046 256.088 307.046C226.206 307.046 201.981 300.451 201.981 292.316C201.981 284.18 226.206 277.586 256.088 277.586C285.97 277.586 310.195 284.18 310.195 292.316Z" fill="#E2E2E2"/>
<path d="M275.207 355.303C274.99 355.294 274.792 355.288 274.536 355.568C274.038 356.114 273.503 356.63 272.916 357.105L272.62 357.344L272.526 357.419C272.353 357.564 272.286 357.731 272.314 357.946C272.322 358.002 272.335 358.054 272.347 358.107C272.362 358.161 272.374 358.214 272.388 358.268C272.438 358.453 272.49 358.64 272.531 358.822L272.539 358.853C272.596 359.114 272.645 359.379 272.686 359.642L272.704 359.745C272.736 359.977 272.765 360.224 272.786 360.48L272.793 360.543C272.796 360.575 272.8 360.608 272.802 360.641C272.825 360.956 272.835 361.244 272.835 361.523C272.835 368.327 267.299 373.865 260.495 373.865H245.374H245.353C244.933 373.859 244.595 373.521 244.588 373.101V373.077V360.053V360.034C244.593 359.612 244.934 359.272 245.356 359.267H245.371H260.495C260.877 359.267 261.281 359.25 261.732 359.217L261.878 359.207C262.249 359.176 262.628 359.13 263.038 359.066L263.214 359.038C263.596 358.974 263.976 358.897 264.347 358.807L264.484 358.771C264.886 358.67 265.271 358.559 265.631 358.441L265.664 358.43C266.453 358.167 267.231 357.839 267.975 357.456C268.341 357.268 268.704 357.063 269.063 356.842L269.094 356.824C269.448 356.603 269.796 356.37 270.121 356.133L271.064 355.391C272.227 354.452 273.213 353.365 274.009 352.144L274.038 352.11C274.128 351.978 274.22 351.826 274.313 351.675L274.409 351.521C276.036 348.913 276.896 345.92 276.896 342.865C276.896 333.821 269.539 326.462 260.495 326.462H242.593H242.499C241.41 326.489 240.535 327.366 240.524 328.459V328.498V347.12C240.524 347.127 240.52 347.132 240.52 347.138V347.178C240.52 347.184 240.524 347.19 240.524 347.196C240.545 348.294 241.433 349.179 242.537 349.183H242.548H260.495C262.398 349.183 264.231 349.616 265.947 350.468C265.956 350.472 265.963 350.477 265.972 350.481C266.062 350.518 266.162 350.539 266.266 350.539C266.446 350.539 266.604 350.469 266.735 350.366C266.771 350.335 266.807 350.305 266.842 350.274C267.641 349.562 268.365 348.754 268.874 348.047C268.956 347.933 268.986 347.802 268.961 347.668C268.936 347.538 268.874 347.438 268.779 347.38L268.782 347.376C268.733 347.347 268.683 347.324 268.634 347.295C268.421 347.173 268.205 347.055 267.987 346.944C267.856 346.876 267.726 346.813 267.594 346.749C267.448 346.68 267.303 346.612 267.155 346.547C266.916 346.441 266.674 346.34 266.431 346.245C266.397 346.233 266.364 346.22 266.33 346.207C266.019 346.088 265.705 345.979 265.388 345.879C265.388 345.879 265.385 345.878 265.383 345.877C263.808 345.384 262.161 345.121 260.495 345.121H245.391H245.332C244.919 345.105 244.589 344.772 244.584 344.357V344.343V331.318V331.285C244.593 330.864 244.935 330.525 245.358 330.524H245.36H260.495C260.793 330.524 261.088 330.546 261.374 330.568L261.417 330.571C267.819 331.047 272.835 336.448 272.835 342.865C272.835 344.511 272.512 346.115 271.875 347.632C271.693 348.062 271.487 348.485 271.261 348.888L271.24 348.919C270.44 350.175 269.504 351.296 268.443 352.275C268.403 352.312 268.361 352.348 268.32 352.384L268.237 352.456C267.787 352.822 267.324 353.148 266.857 353.43C264.936 354.592 262.734 355.204 260.495 355.204H242.559C242.554 355.204 242.551 355.202 242.546 355.202C242.542 355.202 242.538 355.204 242.534 355.204C241.434 355.212 240.549 356.096 240.527 357.193C240.527 357.199 240.524 357.203 240.524 357.209V357.248C240.524 357.254 240.527 357.26 240.527 357.266V375.88C240.527 375.888 240.524 375.892 240.524 375.9C240.524 375.907 240.527 375.913 240.527 375.92C240.539 377.029 241.437 377.926 242.55 377.926H260.495C269.539 377.926 276.896 370.567 276.896 361.523C276.896 359.575 276.551 357.674 275.872 355.852C275.787 355.613 275.606 355.364 275.207 355.303Z" fill="#595959"/>
<path d="M388.17 237.243C376.886 237.243 367.652 228.011 367.652 216.726V195.732C367.652 184.448 376.886 175.215 388.17 175.215C399.455 175.215 408.688 184.448 408.688 195.732V216.726C408.688 228.011 399.455 237.243 388.17 237.243Z" fill="#E2E2E2"/>
<path d="M123.464 237.243C112.18 237.243 102.946 228.011 102.946 216.726V195.732C102.946 184.448 112.18 175.215 123.464 175.215C134.749 175.215 143.982 184.448 143.982 195.732V216.726C143.982 228.011 134.749 237.243 123.464 237.243Z" fill="#E2E2E2"/>
<path d="M392.523 203.428C392.523 263.537 332.895 263.886 259.341 263.886C185.786 263.886 126.159 263.537 126.159 203.428C126.159 143.319 185.786 94.5923 259.341 94.5923C332.895 94.5923 392.523 143.319 392.523 203.428Z" fill="white"/>
<path d="M345.381 228.566H189.264C174.708 228.566 162.798 216.656 162.798 202.1V184.682C162.798 170.126 174.708 158.216 189.264 158.216H345.381C359.938 158.216 371.848 170.126 371.848 184.682V202.1C371.848 216.656 359.938 228.566 345.381 228.566Z" fill="#333333"/>
<path d="M230.902 158.216H345.381C359.938 158.216 371.848 170.126 371.848 184.682V202.1C371.848 216.656 359.938 228.566 345.381 228.566H286.077C286.077 228.566 282.22 211.168 265.154 189.609C248.088 168.049 230.902 158.216 230.902 158.216Z" fill="#232323"/>
<path d="M330.486 214.95C326.326 214.95 322.922 211.546 322.922 207.386V179.397C322.922 175.236 326.326 171.832 330.486 171.832C334.646 171.832 338.05 175.236 338.05 179.397V207.386C338.05 211.546 334.646 214.95 330.486 214.95Z" fill="white"/>
</g>
</g>
<defs>
<clipPath id="clip0_2632_665">
<rect width="512" height="512" fill="white"/>
</clipPath>
</defs>
</svg>
