<svg width="731" height="351" viewBox="0 0 731 351" fill="none" xmlns="http://www.w3.org/2000/svg">
<path opacity="0.8" d="M730.845 407.993C731.019 397.706 731.543 386.197 728.751 375.648C721.075 346.093 704.24 317.759 678.333 295.179C665.074 283.671 651.902 272.25 636.898 262.311C621.982 252.459 605.496 244.264 589.271 236.243C562.229 222.817 532.746 214.709 502.739 207.909C452.494 196.575 400.331 197.708 350.086 186.985C341.974 184.544 334.123 181.667 326.447 178.354C323.655 176.61 320.864 174.867 318.16 172.949C315.892 170.595 313.711 168.154 311.705 165.713C306.471 157.343 301.935 148.799 297.05 140.255C293.736 134.414 290.246 128.573 286.408 122.906C279.255 112.269 272.015 101.459 263.292 91.6072C259.018 86.725 254.308 82.1043 249.335 77.7452C239.391 69.0269 229.273 59.9599 218.02 52.2006C212.437 48.2774 206.593 44.7029 200.487 41.39C188.187 34.7641 175.626 28.051 162.542 22.5585C156.087 19.8558 149.37 17.4148 142.566 15.4096C128.609 11.2248 114.216 7.38874 99.8233 4.5989C93.0194 3.29116 86.2155 2.24494 79.3243 1.63467C64.7569 0.326925 49.9278 -0.19616 35.3604 0.0653878C14.4252 0.414119 -6.42278 4.59889 -26.0495 9.21957C-45.938 13.9274 -64.0818 22.1226 -81.7022 30.5793C-100.806 39.6463 -116.856 52.2878 -131.947 65.278C-147.299 78.4426 -158.901 94.6586 -168.845 110.962C-173.992 120.116 -175.911 129.706 -174.602 139.732C-175.474 149.497 -173.206 158.999 -167.885 168.241C-166.926 170.246 -165.879 172.164 -164.658 174.082C-169.805 189.775 -169.805 207.124 -166.228 223.166C-156.284 267.891 -130.9 310.349 -87.8956 341.037C-60.6798 360.479 -24.7411 372.423 9.802 376.869C36.7561 380.356 64.1463 379.833 91.2748 380.356C114.914 381.49 138.641 383.408 162.193 386.721C187.053 390.208 211.478 395.439 235.728 401.454C255.965 406.773 276.115 412.265 296.091 418.194C315.979 424.122 335.606 430.835 354.186 439.292C361.426 443.477 368.492 447.836 375.557 452.282C391.433 462.221 407.658 470.939 424.842 479.483C435.833 484.975 447.435 489.422 459.385 493.171C478.14 499.012 497.418 503.807 516.695 507.817C543.213 513.31 570.429 515.925 597.296 514.705C613.259 514.007 629.571 511.043 644.226 506.422C667.254 499.186 682.432 488.986 699.093 474.775C707.031 467.975 712.876 458.385 718.022 450.451C723.954 441.297 726.483 430.399 729.188 420.286C730.234 416.276 730.758 412.178 730.845 407.993Z" fill="#FFFFFF"/>
</svg>
