<svg width="250" height="250" viewBox="0 0 364 357" fill="none" xmlns="http://www.w3.org/2000/svg">
<path opacity="1" d="M359.975 205.999C356.828 198.308 353.507 190.791 350.36 183.1C348.088 179.079 345.466 175.408 342.669 171.912C342.319 160.899 339.522 150.586 334.453 140.971C330.607 129.085 323.965 118.771 314.7 110.031C305.96 100.766 295.646 94.1237 283.76 90.278C272.397 84.3346 259.986 81.5378 246.876 82.0622C233.94 82.5866 220.83 85.2087 208.593 90.1032C202.126 87.8308 195.308 86.4323 188.141 86.2575C175.38 83.4606 162.62 83.985 149.859 88.0056C126.61 95.5222 104.235 109.856 92.5227 132.056C80.1116 155.48 76.9651 179.778 82.9085 205.999C87.2786 225.577 93.2219 244.107 100.913 262.636C103.71 269.453 106.507 276.445 110.003 283.088C113.674 289.556 118.394 295.15 122.939 301.093C127.659 307.036 131.679 313.155 137.448 318.224C145.489 325.216 154.229 332.383 163.319 337.802C164.717 338.676 166.291 339.375 167.689 340.075C175.73 343.746 184.995 348.116 193.385 350.913C194.959 351.437 196.532 351.787 198.105 352.136C207.195 353.884 217.334 355.457 226.423 355.982C237.436 356.681 249.148 354.583 259.811 352.311C270.3 350.213 280.438 344.969 290.053 340.599C315.399 328.712 336.376 303.715 350.186 280.116C357.178 269.104 361.023 257.217 361.548 244.456C364.694 231.521 363.995 218.76 359.975 205.999Z" fill="#e9f79e"/>
<path opacity="1" d="M103.3 47.1974C102.95 44.5753 102.775 41.6037 101.901 38.9816C98.9297 30.2413 95.2588 23.5987 88.9658 16.7813C85.2949 12.586 80.5751 9.0899 75.6806 6.64263C67.2899 2.62211 59.4237 0.174805 49.9842 0C45.7889 0 41.0691 0.699263 37.0486 1.57329C34.0769 2.0977 31.6297 3.49611 28.8328 4.54495C19.5681 8.39066 11.7019 14.6837 6.4577 23.4239C0.164716 33.7374 -1.40853 45.799 1.21355 57.5109C2.08757 61.3567 3.83564 65.3772 5.75849 68.8733C9.60421 75.8655 14.8484 79.5364 20.9666 84.2561C25.3367 87.053 30.0565 88.4515 35.1258 88.8011C39.3211 89.6751 43.5164 89.6751 47.7117 88.8011C53.4803 91.9476 59.9481 93.8704 66.0663 93.6956C75.8554 93.1712 85.9941 90.0247 92.9863 82.5081C94.9092 79.886 97.0069 77.4387 98.9297 74.8167C102.426 68.8733 104.174 62.5803 104.174 55.5881C104.174 52.966 103.649 50.1691 103.3 47.1974Z" fill="#e9f79e"/>
</svg>
